<?xml version="1.0" standalone="no"?>
<!DOCTYPE svg PUBLIC "-//W3C//DTD SVG 20010904//EN"
 "http://www.w3.org/TR/2001/REC-SVG-20010904/DTD/svg10.dtd">
<svg version="1.0" xmlns="http://www.w3.org/2000/svg"
 width="323.000000pt" height="287.000000pt" viewBox="0 0 323.000000 287.000000"
 preserveAspectRatio="xMidYMid meet">

<g transform="translate(0.000000,287.000000) scale(0.100000,-0.100000)"
fill="#000000" stroke="none">
<path d="M1390 2766 c-391 -69 -710 -281 -922 -612 -74 -115 -141 -287 -175
-444 -25 -119 -25 -401 0 -520 34 -157 101 -329 175 -444 220 -343 556 -559
961 -617 104 -15 338 -6 441 16 361 78 662 288 862 601 74 115 141 287 175
444 25 119 25 401 0 520 -114 534 -505 928 -1037 1045 -101 22 -380 29 -480
11z m-275 -540 l118 -164 56 -10 c116 -22 242 -35 250 -26 5 5 34 77 66 159
61 158 74 181 98 172 9 -3 43 -89 83 -210 l68 -205 103 -120 c116 -136 93
-123 353 -203 94 -29 175 -60 187 -71 44 -41 48 -80 18 -176 -33 -106 -92
-227 -142 -293 -31 -41 -42 -49 -63 -45 -14 3 -113 13 -221 22 l-196 17 -19
41 c-51 105 -189 125 -264 39 -37 -42 -44 -70 -36 -139 3 -30 3 -54 -1 -54
-15 0 -189 49 -268 75 -112 37 -292 125 -378 184 -39 28 -99 77 -131 110 l-59
60 31 143 c58 263 183 823 188 841 13 42 43 14 159 -147z m-359 -977 c52 -55
183 -147 284 -198 118 -61 226 -102 384 -145 l120 -33 13 -46 c15 -51 68 -105
114 -114 31 -6 34 -10 20 -32 -8 -12 -29 -9 -138 19 -276 71 -529 168 -690
265 -88 54 -204 145 -226 178 -14 21 -12 27 27 80 22 31 46 56 52 57 5 0 23
-14 40 -31z m1019 -113 c34 -15 65 -59 65 -95 0 -24 2 -25 240 -46 96 -9 209
-20 250 -25 119 -15 127 -14 134 16 11 42 53 74 98 74 50 0 74 -13 93 -50 21
-41 19 -72 -9 -112 -21 -31 -22 -38 -10 -59 38 -68 -11 -148 -89 -149 -46 0
-81 21 -97 60 -7 17 -13 30 -14 30 0 0 -138 13 -306 29 l-305 29 -28 -34 c-50
-60 -137 -52 -172 16 -20 38 -19 55 6 106 16 33 18 47 10 63 -28 51 0 130 53
151 30 12 42 12 81 -4z"/>
<path d="M1514 1700 c-47 -19 -68 -85 -43 -132 6 -11 26 -26 45 -34 29 -12 39
-12 68 0 74 31 77 124 6 161 -32 17 -45 18 -76 5z"/>
</g>
</svg>
