<?xml version="1.0" standalone="no"?>
<!DOCTYPE svg PUBLIC "-//W3C//DTD SVG 20010904//EN"
 "http://www.w3.org/TR/2001/REC-SVG-20010904/DTD/svg10.dtd">
<svg version="1.0" xmlns="http://www.w3.org/2000/svg"
 width="343.000000pt" height="302.000000pt" viewBox="0 0 343.000000 302.000000"
 preserveAspectRatio="xMidYMid meet">

<g transform="translate(0.000000,302.000000) scale(0.100000,-0.100000)"
fill="#000000" stroke="none">
<path d="M1595 2944 c-338 -35 -639 -177 -875 -414 -207 -206 -338 -454 -396
-745 -24 -124 -24 -386 0 -510 116 -586 555 -1025 1141 -1141 124 -24 386 -24
510 0 291 58 539 189 745 396 207 206 338 454 396 745 24 124 24 386 0 510
-58 291 -189 539 -396 745 -204 205 -446 334 -729 391 -91 19 -314 31 -396 23z
m348 -139 c170 -30 348 -102 502 -203 90 -59 287 -256 347 -348 149 -225 218
-455 218 -724 0 -305 -92 -567 -283 -808 l-50 -64 -914 914 -914 913 38 33
c106 92 287 193 433 242 174 59 436 77 623 45z m-911 -739 c-44 -51 -78 -113
-97 -178 -14 -49 -16 -105 -13 -386 l3 -328 38 -76 c61 -125 177 -214 309
-238 37 -7 211 -10 480 -8 383 3 428 5 472 22 l48 19 159 -159 160 -159 -38
-33 c-65 -57 -197 -140 -284 -181 -186 -87 -340 -121 -549 -121 -269 0 -499
69 -724 218 -92 60 -289 257 -348 347 -149 227 -218 457 -218 725 0 307 94
573 290 819 l42 53 151 -150 150 -150 -31 -36z m303 -349 c-32 -65 -38 -88
-42 -164 -4 -73 -1 -99 16 -151 90 -266 377 -379 620 -246 l52 28 94 -94 c65
-65 91 -98 84 -105 -15 -15 -763 -20 -850 -5 -129 22 -218 101 -255 226 -12
44 -15 104 -12 346 3 281 4 295 26 343 13 28 37 65 55 83 l31 32 109 -108 109
-109 -37 -76z m538 -455 c-10 -7 -42 -20 -72 -29 -142 -41 -301 36 -364 176
-30 66 -30 179 1 246 l23 49 214 -214 c194 -194 214 -216 198 -228z"/>
<path d="M1512 2309 c-37 -19 -82 -64 -82 -84 0 -4 -9 -18 -20 -32 -42 -53
-14 -103 57 -103 45 0 58 10 68 57 11 56 33 63 185 63 152 0 174 -7 185 -63
11 -51 21 -57 98 -57 165 0 274 -43 335 -134 60 -89 64 -121 58 -448 -2 -161
-7 -311 -11 -333 -5 -33 -3 -44 13 -58 34 -31 74 -19 97 28 19 38 20 60 20
391 l0 350 -38 76 c-77 157 -228 248 -411 248 -47 0 -52 2 -65 31 -7 16 -31
42 -54 57 -40 26 -44 27 -216 30 -163 2 -179 1 -219 -19z"/>
<path d="M1666 1944 c-37 -37 -7 -104 47 -104 96 0 195 -50 251 -127 39 -52
55 -99 65 -183 5 -45 10 -57 33 -69 25 -14 29 -14 55 5 24 18 28 29 31 76 7
126 -78 276 -200 354 -88 56 -247 84 -282 48z"/>
</g>
</svg>
