<?xml version="1.0" standalone="no"?>
<!DOCTYPE svg PUBLIC "-//W3C//DTD SVG 20010904//EN"
 "http://www.w3.org/TR/2001/REC-SVG-20010904/DTD/svg10.dtd">
<svg version="1.0" xmlns="http://www.w3.org/2000/svg"
 width="285.000000pt" height="247.000000pt" viewBox="0 0 285.000000 247.000000"
 preserveAspectRatio="xMidYMid meet">

<g transform="translate(0.000000,247.000000) scale(0.100000,-0.100000)"
fill="#000000" stroke="none">
<path d="M1808 2435 c-170 -63 -288 -261 -288 -484 0 -148 37 -241 124 -318
180 -158 448 -4 526 303 24 93 25 162 4 253 -44 197 -206 305 -366 246z"/>
<path d="M845 2420 c-83 -43 -150 -136 -174 -241 -16 -66 -13 -185 5 -258 89
-356 443 -457 584 -166 91 189 37 469 -116 604 -64 56 -109 75 -189 78 -55 3
-79 -1 -110 -17z"/>
<path d="M276 1775 c-64 -25 -103 -61 -137 -130 -79 -162 -32 -376 114 -512
72 -67 134 -93 217 -93 268 1 339 405 113 637 -88 91 -217 132 -307 98z"/>
<path d="M2445 1776 c-183 -46 -324 -236 -325 -438 0 -132 51 -230 145 -277
66 -33 177 -27 252 14 144 78 243 247 243 417 0 197 -144 327 -315 284z"/>
<path d="M1314 1491 c-113 -27 -210 -116 -360 -326 -64 -91 -147 -190 -236
-282 -121 -126 -142 -152 -182 -235 -78 -157 -84 -287 -22 -423 32 -70 111
-149 184 -183 51 -24 68 -27 162 -26 92 0 126 6 265 44 142 38 172 43 270 44
99 0 128 -5 299 -48 168 -43 197 -48 270 -44 306 16 467 330 319 622 -45 89
-84 138 -198 252 -89 89 -134 145 -220 275 -123 183 -188 255 -267 292 -86 41
-205 56 -284 38z"/>
</g>
</svg>
